# xmcd CD database file
#
# Track frame offsets:
#	150
#	9075
#	24148
#	34273
#	53774
#	67779
#	97945
#
# Disc length: 1505 seconds
#
# Revision: 0
# Processed by: cddbd v1.5.2PL0 Copyright (c) Steve Scherf et al.
# Submitted via: CDex 1.70beta2
#
DISCID=3e05df07
DTITLE=ANCAJAZ - Mise En Bouche Musicale
DYEAR=2012
DGENRE=Jazz
TTITLE0=Indifférence (A.Minvielle)
TTITLE1=Lady The Tramp
TTITLE2=Love Me Or Leave Me
TTITLE3=Hegoak (Trad. Basque)
TTITLE4=Black Coffee
TTITLE5=You Don't Know
TTITLE6=Si Tu T'Imagines
EXTD=YEAR: 2012
EXTT0=
EXTT1=
EXTT2=
EXTT3=
EXTT4=
EXTT5=
EXTT6=
PLAYORDER=
